<svg viewBox="0 0 96 96" xmlns="http://www.w3.org/2000/svg" xmlns:xlink="http://www.w3.org/1999/xlink" id="Icons_MentalHealth" overflow="hidden"><style>
.MsftOfcThm_Background1_Fill_v2 {
 fill:#FFFFFF; 
}
</style>
<path d="M80.984 51.3 74.084 39.4 74.084 39C74.5033 28.0389 68.8528 17.7374 59.384 12.2 49.9168 6.59994 38.1512 6.59994 28.684 12.2 19.197 17.7197 13.5401 28.0331 13.984 39 13.9489 48.4048 18.3149 57.2847 25.784 63L25.784 88 57.384 88 57.384 76.1 62.284 76.1C65.4429 76.1212 68.4747 74.8579 70.684 72.6 72.8716 70.352 74.0921 67.3368 74.084 64.2L74.084 58.2 78.484 58.2C81.094 58 83.394 55 80.984 51.3ZM41.325 47.454C43.282 47.154 44.302 49.603 43.09 51.24L42.912 51.468C41.623 53.042 38.952 52.712 38.765 50.745 38.654 49.593 37.142 48.408 36.446 49.303L32.012 55 27.947 51.837C27.052 51.137 28.238 49.628 29.389 49.517 31.359 49.329 31.689 46.659 30.112 45.37L29.884 45.192C28.247 43.98 25.8 45 26.1 46.956 26.276 48.099 25.1 49.62 24.206 48.923L20.369 45.937 24.823 40.214C25.523 39.319 23.999 38.144 22.856 38.32 20.9 38.62 19.88 36.17 21.092 34.534L21.269 34.306C22.559 32.732 25.229 33.061 25.417 35.029 25.528 36.18 27.04 37.365 27.736 36.471L32.17 30.771 35.983 33.739C36.878 34.439 35.693 35.947 34.542 36.057 32.571 36.246 32.242 38.916 33.818 40.205L34.046 40.383C35.683 41.595 38.134 40.572 37.833 38.618 37.657 37.475 38.828 35.953 39.727 36.652L43.815 39.833 39.359 45.56C38.662 46.454 40.182 47.63 41.325 47.454ZM56.491 30.888C55.728 31.48 54.728 30.183 54.879 29.209 55.138 27.542 53.001 26.709 51.604 27.739L51.41 27.891C50.064 28.991 50.394 31.227 52.071 31.391 53.052 31.491 54.061 32.777 53.298 33.369L50.024 35.911 46.233 31.028C45.64 30.265 44.349 31.274 44.254 32.255 44.092 33.934 41.854 34.262 40.754 32.916L40.6 32.72C39.571 31.32 40.4 29.187 42.069 29.445 43.044 29.596 44.34 28.596 43.748 27.833L39.974 22.972 43.227 20.446C43.991 19.853 44.991 21.146 44.84 22.124 44.581 23.792 46.718 24.624 48.114 23.594L48.314 23.443C49.659 22.343 49.33 20.106 47.652 19.943 46.671 19.848 45.659 18.56 46.426 17.965L49.914 15.257 53.706 20.14C54.298 20.903 55.589 19.894 55.684 18.913 55.846 17.233 58.084 16.906 59.184 18.252L59.335 18.446C60.365 19.846 59.535 21.979 57.866 21.721 56.892 21.57 55.595 22.57 56.187 23.333L59.959 28.2Z" class="MsftOfcThm_Background1_Fill_v2" fill="#FFFFFF"/></svg>